<?xml version="1.0" encoding="UTF-8"?>
<svg version="1.1" viewBox="0 0 1152 2048" width="736" height="1308" xmlns="http://www.w3.org/2000/svg">
<path transform="translate(0)" d="m0 0h1152v2048h-1152z" fill="#EDDACC"/>
<path transform="translate(0,1101)" d="m0 0 4 2 17 13 20 15 20 14 19 12 17 10 24 13 30 15 33 14 28 10 38 11 42 10 40 8 44 7 40 5-4 11-6 14-10 25-8 18-10 19-2 3-8-1-8-2h-12l-11 4-3 1-1 3h-2l-1 4-5 12 1 5 9 7-2 4-12 13-8 8-5 4-1 3 7-3 14-9 14-12h2l-2 4-7 9-11 12-3 3-1 3 7-3 9-7 10-11 5-6h2v5l-8 12-6 7v2l5-2 5-4h2l4 14 10 15 7 7 7 3h11l26-5 24-6 27-9 32-13 33-13h5l-1 3 18 4 88 22 39 9 49 14 30 9 55 18 36 13 51 20 36 16 36 17 31 16 23 13 25 14 28 17 17 11 22 15 19 14 12 9 1 1v385h-1152z" fill="#EDDACC"/>
<path transform="translate(624,1069)" d="m0 0 10 4 7 5 8 16 8 28 6 24 12 40 9 26 8 16 22 33 9 16 3 9h10l44 5 67 9 61 9 54 9 50 10 60 15 30 9 36 12 14 5v294l-9-6-17-13-22-15-23-15-20-12-24-14-18-10-24-13-27-14-36-17-30-13-41-16-35-13-47-16-35-11-52-15-32-8-35-8-23-6-64-16-2-1v-2l-7 1-70 28-26 8-36 8-7 1h-11l-8-4-8-8-9-14-3-10 1-7 8-9 22-28 9-12 7-8 19-12 25-14 22-13 13-8 6-4 6-9 10-18 7-11 2-1-1-2 3-11h4v-2l13-2 17-1h36l21 3 5 1v-14l4-32 3-16 4-8h2l2-5 3-10 2-4-1-12-3-7-3-11v-3h-2l-2-6-1-2v-9l6-31 1-1 1-9h2z" fill="#EDDACC"/>
<path transform="translate(506,1266)" d="m0 0 24 1h81l10 15 12 19 6 8 29 15 29 14 30 15 17 10 9 7 11 12 7 8 10 11 6 8-4 18-6 11-9 8-13 5-7 1h-27l-29-6-29-9-47-16-13-4 2-6 5-13 4-18 1-2h-5l3-2 22-8 22-10 9-5h8l8 1-2-6-5-4-8-2h-27l-17 3-9-1-16-6-6-1h-10l-3 3-3 16-4 5-13 5h-3l-3-21-1-3-2-1h-8l-15 4-13 4h-18l-15-2h-13l-18 5-6 4 1 4 2 1 23 1 62 31 17 7 1 2-39 15-29 12-26 10-27 8-32 7-7 1h-11l-8-4-8-8-9-14-3-10 1-7 8-9 22-28 9-12 7-8 19-12 25-14 22-13 13-8 6-4 6-9 10-18z" fill="#3D354A"/>
<path transform="translate(0,1101)" d="m0 0 4 2 17 13 20 15 20 14 19 12 17 10 24 13 30 15 33 14 28 10 38 11 42 10 40 8 44 7 40 5-4 11-6 14-10 25-8 18-10 19-2 3-8-1-8-2h-12l-11 4-3 1-1 3-3 2-6-1-56-21-30-12-36-16-26-12-27-14-24-14-20-12-22-15-17-12-17-13-11-9-15-13-16-15-7-8z" fill="#EDDACC"/>
<path transform="translate(624,1069)" d="m0 0 10 4 7 5 8 16 8 28 6 24 12 40 9 26 8 16 22 33 9 16 12 27 14 27 8 11 1 1 9-1 12-4 10 2 12 6 6 10 4 8-2 4-7 7h-2l7 8 13 12 8 7 2 3-7-1-11-6-13-9-6-5 2 4 7 8 15 15v2l-6-1-11-8-15-15-2-1 1 5 8 11 8 8v2l-6-1-5-4-5-3-10-11-7-8-10-11-7-8-13-8-18-10-44-22-23-11-14-8-6-8-12-19-9-14h-81l-15-1-7-2-1-2 3-11h4v-2l13-2 17-1h36l21 3 5 1v-14l4-32 3-16 4-8h2l2-5 3-10 2-4-1-12-3-7-3-11v-3h-2l-2-6-1-2v-9l6-31 1-1 1-9h2z" fill="#EFBCAC"/>
<path transform="translate(493,1067)" d="m0 0h2l11 36 3 7v6l12 2 10 2 9 4 11 6 5 4h4v-2l3-1 1-2h3v-2l8-4 27-7 4-1 3-12 3-9 2-7 6-19h3l-1 12-2 6-5 26v9l2 3v5h2l6 20 1 1 1 12-3 7-2 7-3 5h-2l-2 6-3 13-4 27-2 24-10-1-16-2h-36l-17 1-13 1v2h-4l-2 12 2 2h-4l-2 5-12 20-7 12-6 5-14 8-16 10-27 15-18 11-6 4-2-1 8-10 9-12 16-21 24-34 10-19 9-24 8-29 9-27 2-7-3-7v-12l4-10 7-21 1-1v-9l-7-36-1-8z" fill="#EDDACC"/>
<path transform="translate(550,875)" d="m0 0h10l13 3 10 6 4 5 1 3v10l-1 3 8 8 5 10 1 4v17l-2 13 3 1 2 4v9l-4 10-5 4-3 1-5 14-6 7-3 21 1 10 6 12 8 6 10 5 17 6-1 7-4 13-2 7-7 21-8 3-15 4-10 3-6 2v2h-3l-1 3h-3v2l-4 1-8-6-11-6-28-7-3-12-3-8-7-22v-8l20-7 11-7 6-9 2-6v-20l-3-9-6-7-3-10-6 5-4 7 1 5 8 7 1 2v7l-2 2-2-6-10-7-2-2v-8l4-11v-11l-7-15-2-8v-20l4-12 7-12 10-10v-10l4-7 9-8 8-3z" fill="#EFBCAC"/>
<path transform="translate(490,1068)" d="m0 0 3 4 7 34 1 6v9l-4 9-2 7-3 9-3 7v12l3 9-10 28-8 30-8 22-10 21-14 20-13 18-16 21-14 19-4 6-20 26-13 16-7 9-4 5-10 7-3-1 2-4 9-12 3-5 1-5-5 4-9 11-10 9-5 3h-4l1-4 10-10 11-14 2-3-11 9-12 9-10 6h-4l1-4 13-12 7-7 6-7-1-3-8-6-1-5 5-12 2-4 8-6 9-3h12l16 4 2-5 12-23 12-29 8-20 5-12h2l2-6 15-25 7-15 8-29 9-38 10-48 5-16 4-7 7-6z" fill="#EFBCAC"/>
<path transform="translate(626,1162)" d="m0 0h2l1 5 16 40 9 26 11 25 9 16 1 4h2l8 10 10 12 11 14 10 11 9 11 11 13 7 8 3 4v2l-5-1-24-13-42-21-23-11-14-8-6-8-12-19-9-14h-81l-15-1-7-2-1-2 3-11h4v-2l13-2 17-1h36l21 3 5 1v-14l4-32 3-16 4-8h2l2-5 3-10z" fill="#EDDACC"/>
<path transform="translate(582,1336)" d="m0 0h10l12 3 10 4 9 1 17-3h27l10 3 5 5v5l-4 1-4-1h-8l-15 8-21 9-17 6 2 1-3 16-5 15-4 8-35-10-14-5-13-4-24-11-19-10-28-14-23-1-4-4 2-4 8-4 15-4h13l15 2h18l13-4 15-4h8l3 2 2 8 1 16 16-6 3-4 3-16z" fill="#EFBCAC"/>
<path transform="translate(495,1176)" d="m0 0 5 5 7 6 4 1h11l21-2 8-1h18l10 2h29l6-4 4-4-5 15-4 25-3 32-10-1-16-2h-36l-17 1-13 2h-5l-2-25-6-35-4-9z" fill="#FDFDFC"/>
<path transform="translate(550,875)" d="m0 0h10l13 3 10 6 4 5 1 3v10l-1 3 8 8 5 10 1 4v17l-2 10-4 10h-1l-3-14-7-12-10-9-10-6-3-1h-7l-7 5-10 15-4 7v2l12 1 3 4-12-2h-5l-2 5v5l5 2 7 1v1h-9l-5-2v14l-4 9-8 10-2 4 1 5 8 7 1 2v7l-2 2-2-6-10-7-2-2v-8l4-11v-11l-7-15-2-8v-20l4-12 7-12 10-10v-10l4-7 9-8 8-3z" fill="#3D354A"/>
<path transform="translate(493,1067)" d="m0 0h2l11 36 3 7v6l12 2 10 2 9 4 11 6 5 4h4v-2l3-1 1-2h3v-2l8-4 27-7 4-1 3-12 3-9 2-7 6-19h3l-1 12-2 6-5 26v9l2 3v5h2l6 20 1 1 1 12-4 10-1-4v-6h-85l-49-2v-7l4-10 7-21 1-1v-9l-7-36-1-8z" fill="#FDFDFC"/>
<path transform="translate(488,1160)" d="m0 0h28l21 1h85l1 1v12l-4 7h-3l-4 5-4 2h-29l-10-2h-18l-15 2-14 1h-11l-7-3-8-9-1 3h-3-1v-8l-3-7z" fill="#F7EAE0"/>
<path transform="translate(630,1279)" d="m0 0h19l14 1h15l9 10 11 14 11 13 9 11 9 10 9 11-1 2-6-3-10-3-16-8-17-8-23-11-16-8-6-4-4-5-4-8-3-11z" fill="#EDDACC"/>
<path transform="translate(532,1408)" d="m0 0h5l-1 3 18 4 88 22 39 9 49 14 30 9 55 18 36 13 51 20 36 16 36 17 31 16 23 13 25 14 28 17 17 11 22 15 19 14 12 9 1 4-5-2-13-10-19-14-26-17-17-11-27-16-21-12-26-14-29-15-36-17-28-12-32-13-48-18-36-12-32-10-43-12-78-20-64-16-37-9-11-2v-3z" fill="#FDFDFC"/>
<path transform="translate(459,1267)" d="m0 0 2 1 25 2 12 2-2 6-8 13-5 9-8 7-13 7-5 4-14 7-16 9-13 6-6 1 2-4 15-20 14-19 14-20z" fill="#EDDACC"/>
<path transform="translate(579,50)" d="m0 0h1l1 9 10 11 3 5v7l-7 17-1 10 8 16 3 5-1 5-7 8-10 13-1 2-1 17h-1l-4-21-5-21-1-15 5-12v-8l-6-15v-7l6-9 6-8z" fill="#FEFEFD"/>
<path transform="translate(544,1247)" d="m0 0h36l21 3v2l5 1 4 14-8 1h-72l-15-1-7-2-1-2 3-11h4v-2l13-2z" fill="#F0BDAD"/>
<path transform="translate(550,1401)" d="m0 0 7 1 24 8 41 12 56 19 22 6 28 5 19 1-3 2-14 1-4 1v2l-9-2-48-13-44-10-23-6-64-16-2-1v-2l-2-2z" fill="#F7E8DE"/>
<path transform="translate(725,1281)" d="m0 0 38 4 62 8 81 12 54 9 50 10 60 15 41 12 27 9 14 5v4l-5-1-38-13-30-9-42-11-39-9-53-10-70-11-79-11-49-6-21-2z" fill="#FDFDFC"/>
<path transform="translate(0,1101)" d="m0 0 4 2 17 13 20 15 20 14 19 12 17 10 24 13 30 15 33 14 28 10 38 11 42 10 40 8 44 7 40 5-2 4h-8l-60-9-43-8-40-9-37-10-30-10-28-11-20-9-21-10-22-12-26-15-19-12-23-16-32-24-5-4z" fill="#FEFEFD"/>
<path transform="translate(0,1165)" d="m0 0 5 4 7 8 8 8 8 7 12 11 10 8 18 14 23 16 17 11 21 13 25 14 29 15 33 15 28 12 41 16 47 16-2 4-6-1-56-21-30-12-36-16-26-12-27-14-24-14-20-12-22-15-17-12-17-13-11-9-15-13-16-15-7-8z" fill="#FEFEFD"/>
<path transform="translate(615,1271)" d="m0 0 6 2 48 3 8 2v3h-14l-33-2 4 14 5 10 6 5 15 8 14 6 14 7 24 11 12 6 10 3 10 9 2 5-5-1-24-13-42-21-23-11-14-8-6-8-12-19-5-8z" fill="#F6E7DD"/>
<path transform="translate(579,37)" d="m0 0 5 5 12 13 7 11 2 4v13l-2 8 13 1 16 5 6 3-1 6-6 12-9 9-1 2 6 2 10 8 3 3-1 4-10 10-11 5-8 2h-13l-2-2 17-1 11-4 8-6 5-5-1-4-11-8-5-2h-8l4-3 9-6 7-10 5-11-10-3-15-4-10-1-2 5-1-3 4-13v-9l-4-10-9-11-10-10-16 16-6 10-2 6v9l5 13-1 3-3-4h-9l-14 3-10 4h-2l4 7 9 12 6 5 9 4-4 1-10-3-14 9-5 5 12 10 14 7 5 1h15l-2 2-5 1h-10l-10-3-11-7-10-9-2-3 10-9 10-6-2-4-10-15-2-5 8-5 13-4 5-1h10l-2-8v-12l6-12 11-12z" fill="#FEFEFD"/>
<path transform="translate(522,1412)" d="m0 0 3 1 10 2v1l-17 3-15 6-11 4-11 5-21 8-20 6-31 7-17 3h-16l-9-6-6-7-7-11-7-14 1-4 3-1 4 14 10 15 7 7 7 3h11l26-5 24-6 27-9 32-13z" fill="#F6E5DB"/>
<path transform="translate(550,1401)" d="m0 0 7 1 24 8 21 6-2 2 1 5-2 1-18-1-43-11-2-1v-2l-2-2z" fill="#EDDACC"/>
<path transform="translate(462,1264)" d="m0 0 30 2h13l-1 5-12 20-7 12-6 5-14 8-16 10-27 15-18 11-6 4-2-1 8-10 5-5 9-3 17-8 19-11 7-4 10-6 9-6 4-5 10-18 4-7h-8l-16-2-13-1-1-4z" fill="#F6E5DB"/>
<path transform="translate(727,227)" d="m0 0h7l5 3 3 4-1 7-4 5-8 3 6-1 5-2 2 2-1 4-4 3-6 2h-8l-6-3-3-5v-10l5-8z" fill="#FEFEFD"/>
<path transform="translate(519,227)" d="m0 0 7 1 5 4 1 6-4 6-5 4-5 1 6-1 6-2 2 4-4 4-8 3h-9l-6-5-1-3v-11l4-6 6-4z" fill="#FEFEFD"/>
<path transform="translate(663,228)" d="m0 0h6l1 1v24l-3 10-5 6-9 1-2-4 2-2 7-3 3-7-6 3h-9l-4-4-2-7v-9l3-8h6l-1 10v9l1 2 5-1 5-6z" fill="#FEFEFD"/>
<path transform="translate(558,228)" d="m0 0h14l5 4-1 5-2 1-5-2h-12l3 1 10 1 8 5 1 6-3 5-5 3h-14l-6-3-1-2v-7l5 1 4 4 8 1 4-2v-2l-17-3-4-3v-8l5-4z" fill="#FEFEFD"/>
<path transform="translate(606,220)" d="m0 0h5l1 9 10 1 1 1v5h-11l1 15 6-5h4l1 4-6 7-7 1-4-4-2-7v-11h-7l-1-1v-5h8v-9z" fill="#FEFEFD"/>
<path transform="translate(473,220)" d="m0 0h12v4l-11 2-2 5-1 2h12l2 1-1 5h-15v19h-5l-2-6-1-12-3-1-1-3 6-4 3-6z" fill="#FEFEFD"/>
<path transform="translate(547,873)" d="m0 0h19l13 4 8 6 4 8 2 13 7 11 3 7 2 7v14l-2 12-1 2h-3l1-13v-17l-4-11-9-10-1-2 1-2v-10l-4-7-10-6-3-1v-2l-9-1h-18z" fill="#F5E1D5"/>
<path transform="translate(459,1315)" d="m0 0m-1 1m-1 1 2 1v2l-49 28-12 8-2-1 8-10 5-5 9-3 17-8 19-11z" fill="#F5E5DB"/>
<path transform="translate(500,937)" d="m0 0h1l1 22 1 7h2l7 15v11l-4 11v8l5 4 6 4 1 1v8h-2l-4-7-8-6-2-4v-7l3-10v-12l-6-15-2-11v-13z" fill="#F5E3D8"/>
<path transform="translate(615,1271)" d="m0 0 6 2 48 3 8 2v3h-14l-35-2-6-1v4l-3-1-4-7z" fill="#FDFCFA"/>
<path transform="translate(691,216)" d="m0 0 4 1v40h-6l-1-7v-32z" fill="#FEFEFD"/>
<path transform="translate(788,1348)" d="m0 0 10 1 4 8 1 6-2 2-9 1-6-4-3-4v-6l2-3z" fill="#EDDACC"/>
<path transform="translate(336,1357)" d="m0 0h13l1 1v9l-5 5-3 2-8-1-3-2 1-6z" fill="#F7E8DE"/>
<path transform="translate(787,1408)" d="m0 0 4 2 3 2-1 3-3 3-6 17-6 8-10 7-9 3h-5l1-3 13-5 9-8 6-13 3-15z" fill="#F6E8DE"/>
<path transform="translate(407,217)" d="m0 0h6l1 40h-7z" fill="#FEFEFD"/>
<path transform="translate(579,62)" d="m0 0 6 5 4 7v6l-3 5-3 1v-3l1-6-3-3-4 1-1 7 1 3-4 1-4-5 1-8 7-9z" fill="#EFDDD0"/>
<path transform="translate(462,1264)" d="m0 0 30 2h13l-1 5-2 3h-2l-1-2-38-3-1-4z" fill="#FDFCFA"/>
<path transform="translate(432,227)" d="m0 0h7v30h-6z" fill="#FEFEFD"/>
<path transform="translate(556,171)" d="m0 0 3 1-3 3-1 5h69v1l-47 2h-25l-2-2v-5z" fill="#FEFEFD"/>
<path transform="translate(550,1401)" d="m0 0 3 1-3 5-3 3 1 2 37 10-4 1-43-11-2-1v-2l-2-2z" fill="#F7E8DE"/>
<path transform="translate(710,1450)" d="m0 0 11 1 7 1 19 1-3 2-14 1-4 1v2l-9-2-14-4v-2h7z" fill="#F7E8DD"/>
<path transform="translate(530,880)" d="m0 0m-1 1 1 4-5 6-1 9-1 5-9 9-7 12h-3l2-6 6-9 7-8 3-13 4-6z" fill="#F3DDD1"/>
<path transform="translate(521,991)" d="m0 0h2l1 2v6l-5 3v5l6 8 1 6-2 1v-6l-4-2-7-6-1-5 6-9z" fill="#F5E2D7"/>
<path transform="translate(577,186)" d="m0 0h49l2 4-4 4h-7l4-3h2v-3h-50z" fill="#FEFEFD"/>
<path transform="translate(679,1443)" d="m0 0 9 1 22 5v2l4 1h-15l-18-5z" fill="#F8EDE6"/>
<path transform="translate(490,1271)" d="m0 0h9l2 5-9 15-4 7-3-1 2-6 11-19h-8z" fill="#F5E2D7"/>
<path transform="translate(602,927)" d="m0 0h2l1 2v14l-2 12-1 2h-3l1-13 1-3z" fill="#F5E5DA"/>
<path transform="translate(506 1e3)" d="m0 0h1l1 7 5 4 6 4 1 1v8h-2l-4-7-8-6-2-4 1-5z" fill="#F5E1D6"/>
<path transform="translate(555,244)" d="m0 0 13 1 4 2-2 4-8 1-6-3z" fill="#EFDDCF"/>
<path transform="translate(578,124)" d="m0 0h2l6 8-1 4-6 8h-1z" fill="#F0DFD2"/>
<path transform="translate(459,1315)" d="m0 0m-1 1m-1 1 2 1v2l-21 12-3-1 5-5 14-8z" fill="#F6E7DD"/>
<path transform="translate(518,233)" d="m0 0 6 1 1 4-4 4-7 1-2-1 1-5z" fill="#F8EAE0"/>
<path transform="translate(729,233)" d="m0 0 6 2-1 4-4 3-5 1-3-2 1-4z" fill="#EEDCCE"/>
<path transform="translate(336,1357)" d="m0 0h13l1 1v7l-13-4z" fill="#FDFCFA"/>
<path transform="translate(800,1357)" d="m0 0h2l1 6-2 2-9 1-5-3v-2h11z" fill="#F5E6DB"/>
<path transform="translate(791,1383)" d="m0 0 5 2 8 7v4l-4-1-8-9z" fill="#F2E1D5"/>
<path transform="translate(346,1364)" d="m0 0 4 1-2 5-6 4-8-1v-1l9-1 2-4z" fill="#EDDACD"/>
<path transform="translate(548,874)" d="m0 0h13l9 2-4 1-6-1h-10l-12 3-4 2 1-4z" fill="#EFD2C3"/>
<path transform="translate(349,1415)" d="m0 0h2l4 15-4-2-4-8 1-4z" fill="#F4E2D6"/>
<path transform="translate(514,910)" d="m0 0 1 3-7 11-1 2h-3l2-6 4-6z" fill="#F5E1D6"/>
<path transform="translate(575,951)" d="m0 0 9 1 1 2h-7l-13 2 1-3z" fill="#3D354A"/>
<path transform="translate(707,1342)" d="m0 0 5 1 15 8-4 1-16-8z" fill="#F7E9E2"/>
<path transform="translate(669,1272)" d="m0 0h4l2 5-21-1v-1l13-1z" fill="#F6E8DD"/>
<path transform="translate(490,1271)" d="m0 0h9l2 5-4 6-3-1 2-5 2-4h-8z" fill="#F6E4DA"/>
<path transform="translate(433,217)" d="m0 0h6v7h-6z" fill="#FEFEFD"/>
<path transform="translate(748,1451)" d="m0 0h7l-1 3-26-1v-1z" fill="#F2D2C5"/>
<path transform="translate(727,1286)" d="m0 0h9l-4 6v3h-2l-3-6z" fill="#F6E8DD"/>
<path transform="translate(561,169)" d="m0 0v3l-2 4-1 4h9v1h-10l-2-1v-5l4-5z" fill="#F7E9DF"/>
<path transform="translate(626,1162)" d="m0 0h2l1 10h-6l1-6z" fill="#F6E8DD"/>
<path transform="translate(506,1261)" d="m0 0 4 5h-4l-1 2v-2l-3 1h-10v-1l10-2z" fill="#F5E6DB"/>
<path transform="translate(610,1264)" d="m0 0 5 3 6 5-3 1h-3l-4-5z" fill="#F6E5DA"/>
<path transform="translate(530,880)" d="m0 0m-1 1 1 4-5 6-2 3-1-4 4-6z" fill="#F4DCD0"/>
<path transform="translate(557,235)" d="m0 0h12l2 1-1 3-10-1-4-2z" fill="#F0DED1"/>
<path transform="translate(467,1310)" d="m0 0m-2 1h2v4l-6 4-3-1 4-5z" fill="#F5E3D8"/>
<path transform="translate(663,1438)" d="m0 0 9 1 3 1 1 3-9-2-4-2z" fill="#FAF1ED"/>
<path transform="translate(746,1362)" d="m0 0 8 6 4 6-4-2-7-6-3-3z" fill="#EED4C6"/>
<path transform="translate(734,1355)" d="m0 0 8 4 4 4-5-1-7-4z" fill="#F8EDE7"/>
<path transform="translate(761,1448)" d="m0 0 4 1-3 3-8 1 1-3z" fill="#F6E4D9"/>
<path transform="translate(618,1171)" d="m0 0h3l-2 6-1 2-3-1 1-5z" fill="#EDDACC"/>
<path transform="translate(463,1259)" d="m0 0 3 1 1 3 3 2h-9z" fill="#F6E8DD"/>
<path transform="translate(459,1267)" d="m0 0 2 1 13 1v1l-12 1-4 2z" fill="#F6E8DD"/>
</svg>
